<?xml version="1.0" encoding="iso-8859-1"?>
<!-- Generator: Adobe Illustrator 22.0.1, SVG Export Plug-In . SVG Version: 6.00 Build 0)  -->
<svg version="1.1" xmlns="http://www.w3.org/2000/svg" xmlns:xlink="http://www.w3.org/1999/xlink" x="0px" y="0px"
	 viewBox="0 0 512 512" style="enable-background:new 0 0 512 512;" xml:space="preserve">
<g id="BULINE">
	<path id="XMLID_1227_" style="fill:#487FDE;" d="M512,256c0,70.692-28.654,134.692-74.981,181.019S326.692,512,256,512
		s-134.692-28.654-181.019-74.981S0,326.692,0,256S28.654,121.308,74.981,74.981S185.308,0,256,0s134.692,28.654,181.019,74.981
		S512,185.308,512,256z"/>
</g>
<g id="Icons">
	<g id="XMLID_796_">
		<g id="XMLID_785_">
			<path id="XMLID_1300_" style="fill:#4070B5;" d="M512,256c0,47.14-12.742,91.302-34.97,129.232
				c-22.228,37.93-53.94,69.628-91.88,91.837c-3.47,2.035-6.993,3.99-10.564,5.862c-3.571,1.871-7.191,3.659-10.856,5.359
				c-16.145-5.135-31.598-11.833-46.179-19.914c-14.581-8.081-28.291-17.546-40.951-28.216c-2.13-1.79-4.227-3.615-6.295-5.474
				c-2.068-1.859-4.105-3.751-6.115-5.676c-9.255-8.89-17.845-18.467-25.685-28.651s-14.93-20.974-21.185-32.289
				c-0.905-1.625-1.79-3.262-2.656-4.911s-1.714-3.309-2.544-4.979c-5.47-10.99-10.173-22.43-14.036-34.25s-6.889-24.02-9.004-36.53
				c-1.19-7.005-2.095-14.105-2.703-21.29s-0.918-14.455-0.918-21.8c0-1.525,0.013-3.045,0.039-4.563s0.066-3.032,0.121-4.547
				c0.49-14.05,2.115-27.815,4.785-41.204s6.385-26.401,11.055-38.947c0.275-0.75,0.558-1.5,0.844-2.249s0.576-1.496,0.866-2.241
				c0.245-0.62,0.492-1.24,0.742-1.859s0.503-1.236,0.758-1.851c3.175-7.71,6.715-15.228,10.599-22.534s8.111-14.401,12.661-21.266
				c4.62-6.97,9.573-13.7,14.835-20.169S253.6,70.205,259.46,64.28c0,0,0-0.002,0.001-0.005s0.004-0.005,0.009-0.005
				c2.575-2.6,5.205-5.148,7.889-7.639c2.684-2.491,5.421-4.926,8.211-7.301c4.71-4.015,9.565-7.86,14.559-11.526
				s10.126-7.154,15.391-10.454c4.515-2.84,9.128-5.54,13.83-8.096s9.495-4.969,14.37-7.234
				c51.69,16.45,96.26,48.875,127.908,91.472S512,198.86,512,256z"/>
			<g id="XMLID_461_">
				<path id="XMLID_1097_" style="fill:#FDC3B5;" d="M385.15,477.07c-3.47,2.035-6.993,3.99-10.564,5.862
					c-3.571,1.871-7.191,3.659-10.856,5.359c-16.375,7.61-33.688,13.537-51.716,17.562S275.24,512,256,512
					c-18.175,0-35.907-1.895-53.011-5.498s-33.579-8.913-49.239-15.743c-4.535-1.98-9.003-4.085-13.398-6.315
					s-8.717-4.585-12.962-7.065l1.695-11.71l1.695-11.71c0.075-0.505,0.15-1.007,0.227-1.51s0.158-1.005,0.242-1.51
					c0-0.005,0.003-0.012,0.005-0.02s0.005-0.015,0.005-0.02c0.005-0.02,0.008-0.037,0.01-0.055s0.005-0.035,0.01-0.055
					c0.005-0.03,0.01-0.062,0.015-0.095s0.01-0.065,0.015-0.095c0.08-0.46,0.162-0.917,0.247-1.374s0.173-0.911,0.263-1.366
					c0.2-1.005,0.412-2.007,0.636-3.005s0.459-1.99,0.704-2.975c0,0,0,0,0-0.001s0-0.004,0-0.009c0.105-0.4,0.208-0.795,0.311-1.189
					s0.209-0.786,0.319-1.181c0.245-0.915,0.503-1.825,0.771-2.73s0.549-1.805,0.839-2.7c0.105-0.325,0.21-0.645,0.316-0.964
					s0.214-0.636,0.324-0.956c0,0,0,0,0.001-0.001s0.004-0.004,0.009-0.009c0.325-0.95,0.662-1.895,1.011-2.836
					s0.709-1.879,1.079-2.814c1.625-4.055,3.465-8,5.506-11.819s4.284-7.511,6.714-11.061c1.105-1.62,2.25-3.21,3.434-4.769
					s2.406-3.086,3.666-4.581c0.21-0.245,0.423-0.495,0.636-0.745s0.429-0.5,0.644-0.745c4.26-4.89,8.92-9.417,13.936-13.525
					s10.389-7.795,16.074-11.005v-0.005v-0.005c0.07-0.04,0.14-0.08,0.211-0.121s0.144-0.084,0.219-0.129
					c2.885-1.61,5.848-3.103,8.884-4.468s6.146-2.602,9.326-3.702l2.365-0.815l2.365-0.815l0.05-0.02l0.05-0.02h0.005h0.005
					l0.005-0.005l0.005-0.005l2.125-0.735l2.125-0.735l3.225-1.115l3.225-1.115l3.925-1.36l3.925-1.36
					c0.005,0,0.008-0.002,0.01-0.005s0.005-0.005,0.01-0.005c0.84-0.29,1.545-0.823,2.04-1.504s0.78-1.511,0.78-2.396v-19.78v-19.78
					h25.245h25.245v20.11v20.11c0,0.805,0.238,1.575,0.659,2.227s1.026,1.188,1.761,1.523l6.045,2.74l6.045,2.74l3.035,1.025
					l3.035,1.025c0.23,0.075,0.457,0.15,0.684,0.227c0.226,0.077,0.451,0.157,0.676,0.242c1.075,0.375,2.142,0.767,3.2,1.175
					c1.058,0.407,2.105,0.83,3.14,1.265c0.625,0.26,1.25,0.527,1.874,0.802s1.246,0.557,1.866,0.847
					c0.31,0.145,0.617,0.29,0.924,0.436s0.611,0.294,0.916,0.444c0.515,0.25,1.028,0.502,1.538,0.759s1.018,0.516,1.523,0.781
					c0.195,0.105,0.387,0.205,0.579,0.305s0.381,0.2,0.571,0.305c0.8,0.43,1.59,0.87,2.374,1.319s1.561,0.906,2.336,1.371
					c1.85,1.115,3.665,2.28,5.442,3.495s3.518,2.48,5.218,3.795c0.425,0.325,0.847,0.652,1.267,0.984s0.838,0.666,1.253,1.006
					c3.88,3.155,7.545,6.563,10.979,10.195c3.434,3.633,6.636,7.49,9.591,11.545c1.58,2.18,3.092,4.415,4.53,6.705
					c1.438,2.29,2.8,4.635,4.08,7.035c1.485,2.765,2.86,5.595,4.124,8.484s2.416,5.836,3.456,8.836
					c0.155,0.45,0.307,0.902,0.457,1.356c0.15,0.454,0.297,0.909,0.442,1.364c0.04,0.125,0.08,0.253,0.119,0.38
					c0.039,0.128,0.076,0.255,0.111,0.38c0.09,0.275,0.178,0.55,0.263,0.826c0.085,0.276,0.167,0.554,0.247,0.834
					c0.065,0.22,0.13,0.44,0.194,0.66s0.126,0.44,0.186,0.66c0.085,0.285,0.165,0.57,0.243,0.855
					c0.077,0.285,0.152,0.57,0.228,0.855c0.04,0.135,0.077,0.272,0.114,0.411s0.071,0.279,0.106,0.419
					c0.09,0.33,0.177,0.662,0.261,0.996c0.084,0.334,0.164,0.669,0.239,1.004c0.135,0.545,0.263,1.09,0.385,1.635
					s0.24,1.09,0.355,1.635c0.065,0.295,0.127,0.587,0.187,0.879c0.06,0.291,0.118,0.581,0.173,0.871
					c0.025,0.14,0.052,0.277,0.08,0.414c0.028,0.136,0.055,0.271,0.08,0.406c0.065,0.355,0.13,0.71,0.194,1.065
					s0.126,0.71,0.186,1.065c0.075,0.415,0.148,0.833,0.216,1.251c0.069,0.419,0.134,0.839,0.194,1.259
					c0.065,0.42,0.128,0.84,0.188,1.261s0.117,0.844,0.172,1.269l1.345,10.48L385.15,477.07z"/>
				<path id="XMLID_1090_" style="fill:#F5BB96;" d="M261.93,308.24v19.78v19.78c0,0.885-0.285,1.715-0.78,2.396
					c-0.495,0.681-1.2,1.214-2.04,1.504c-0.005,0-0.008,0.002-0.01,0.005c-0.003,0.002-0.005,0.005-0.01,0.005l-3.925,1.36
					l-3.925,1.36l-3.225,1.115l-3.225,1.115l-2.125,0.735l-2.125,0.735l-0.005,0.005l-0.005,0.005h-0.005h-0.005l-2.415,0.835
					l-2.415,0.835c-3.18,1.1-6.29,2.337-9.326,3.702s-5.999,2.858-8.884,4.468c-0.03,0.015-0.058,0.032-0.084,0.049
					s-0.051,0.031-0.076,0.041c-0.045,0.03-0.09,0.058-0.135,0.084s-0.09,0.051-0.135,0.076v0.005v0.005
					c-5.685,3.21-11.058,6.897-16.074,11.005s-9.676,8.635-13.936,13.525c-0.215,0.245-0.43,0.495-0.644,0.745
					s-0.426,0.5-0.636,0.745c-1.26,1.495-2.483,3.023-3.666,4.581s-2.329,3.149-3.434,4.769c-1.685,2.46-3.28,4.987-4.78,7.579
					s-2.905,5.246-4.21,7.961c-0.58,1.2-1.14,2.412-1.679,3.636s-1.056,2.459-1.551,3.704c-0.37,0.935-0.73,1.875-1.08,2.818
					s-0.69,1.891-1.02,2.841c-0.11,0.32-0.218,0.638-0.324,0.956s-0.211,0.639-0.316,0.964c-0.245,0.76-0.485,1.525-0.716,2.295
					s-0.454,1.545-0.664,2.325c-0.04,0.135-0.08,0.27-0.119,0.405s-0.076,0.27-0.111,0.405c-0.11,0.395-0.215,0.787-0.319,1.181
					s-0.206,0.789-0.311,1.189c0,0.005,0,0.007,0,0.009s0,0.001,0,0.001c-0.245,0.985-0.48,1.978-0.704,2.975s-0.436,2-0.636,3.005
					c-0.2,1.005-0.385,2.018-0.557,3.035s-0.332,2.04-0.482,3.065l-2.665,18.4l-2.665,18.4c-4.535-1.98-9.003-4.085-13.398-6.315
					s-8.717-4.585-12.962-7.065l1.695-11.71l1.695-11.71c0.075-0.505,0.15-1.007,0.227-1.51s0.158-1.005,0.242-1.51
					c0-0.005,0.003-0.012,0.005-0.02s0.005-0.015,0.005-0.02c0.005-0.02,0.008-0.037,0.01-0.055s0.005-0.035,0.01-0.055
					c0.005-0.03,0.01-0.062,0.015-0.095s0.01-0.065,0.015-0.095c0.08-0.46,0.162-0.917,0.247-1.374s0.173-0.911,0.263-1.366
					c0.2-1.005,0.412-2.007,0.636-3.005s0.459-1.99,0.704-2.975c0,0,0,0,0-0.001s0-0.004,0-0.009c0.105-0.4,0.208-0.795,0.311-1.189
					s0.209-0.786,0.319-1.181c0.245-0.915,0.503-1.825,0.771-2.73s0.549-1.805,0.839-2.7c0.105-0.325,0.21-0.645,0.316-0.964
					s0.214-0.636,0.324-0.956c0,0,0,0,0.001-0.001s0.004-0.004,0.009-0.009c0.325-0.95,0.662-1.895,1.011-2.836
					s0.709-1.879,1.079-2.814c1.625-4.055,3.465-8,5.506-11.819s4.284-7.511,6.714-11.061c1.105-1.62,2.25-3.21,3.434-4.769
					s2.406-3.086,3.666-4.581c0.21-0.245,0.423-0.495,0.636-0.745s0.429-0.5,0.644-0.745c4.26-4.89,8.92-9.417,13.936-13.525
					s10.389-7.795,16.074-11.005v-0.005v-0.005c0.07-0.04,0.14-0.08,0.211-0.121s0.144-0.084,0.219-0.129
					c2.885-1.61,5.848-3.103,8.884-4.468s6.146-2.602,9.326-3.702l2.365-0.815l2.365-0.815l0.05-0.02l0.05-0.02h0.005h0.005
					l0.005-0.005l0.005-0.005l2.125-0.735l2.125-0.735l3.225-1.115l3.225-1.115l3.925-1.36l3.925-1.36
					c0.005,0,0.008-0.002,0.01-0.005s0.005-0.005,0.01-0.005c0.84-0.29,1.545-0.823,2.04-1.504s0.78-1.511,0.78-2.396v-19.78v-19.78
					h14.15H261.93z"/>
				<path id="XMLID_689_" style="fill:#BC8E86;" d="M284.12,339.239c-8.415,2.806-16.83,4.208-25.245,4.208
					c-8.415,0-16.83-1.403-25.245-4.208v-11.167v-11.167h25.245h25.245v11.167V339.239z"/>
				<g id="XMLID_684_">
					<path id="XMLID_687_" style="fill:#F92B43;" d="M312.482,49.398l-1.5,5.08l-1.5,5.08l-6.82,23.095l-6.82,23.095l-16.57-3.8
						l-16.57-3.8l0.78-4.74l0.78-4.74h-8.265h-8.265l0.78,4.74l0.78,4.74l-16.57,3.8l-16.57,3.8l-6.82-23.095l-6.82-23.095
						l-1.5-5.08l-1.5-5.08c-0.29-0.98-0.503-1.963-0.643-2.943c-0.14-0.98-0.207-1.957-0.207-2.927c0-4.685,1.607-9.17,4.419-12.759
						s6.826-6.281,11.641-7.381c4.07-0.93,8.12-0.59,11.749,0.75c3.629,1.34,6.836,3.68,9.221,6.75l-0.03-0.425l-0.03-0.425
						c-0.37-5.955,1.81-11.445,5.573-15.446c3.763-4.001,9.108-6.514,15.068-6.514s11.305,2.512,15.068,6.514
						c3.762,4.001,5.943,9.491,5.573,15.446l-0.005,0.055l-0.005,0.055c2.41-2.83,5.55-4.967,9.064-6.174
						c3.514-1.206,7.401-1.481,11.306-0.586c5.81,1.33,10.457,4.975,13.23,9.716C313.274,37.845,314.172,43.683,312.482,49.398z"/>
					<path id="XMLID_685_" style="fill:#BC3939;" d="M309.482,59.558l-6.82,23.095l-6.82,23.095l-16.57-3.8l-16.57-3.8l0.78-4.74
						l0.78-4.74h-8.265h-8.265l0.78,4.74l0.78,4.74l-16.57,3.8l-16.57,3.8l-6.82-23.095l-6.82-23.095
						c1.41-1.985,3.175-3.728,5.231-5.121c2.056-1.394,4.404-2.439,6.979-3.029c4.07-0.935,8.12-0.598,11.749,0.741
						c3.629,1.339,6.836,3.679,9.221,6.749l-0.03-0.425l-0.03-0.425c-0.37-5.95,1.81-11.44,5.573-15.443
						c3.763-4.003,9.108-6.518,15.068-6.518s11.305,2.515,15.068,6.518c3.762,4.003,5.943,9.493,5.573,15.443l-0.005,0.06
						l-0.005,0.06c2.41-2.83,5.55-4.968,9.064-6.174c3.514-1.206,7.401-1.481,11.306-0.586c2.575,0.59,4.923,1.635,6.979,3.029
						S308.072,57.573,309.482,59.558z"/>
				</g>
				<path id="XMLID_669_" style="fill:#533022;" d="M256.667,64.239L256.667,64.239L256.667,64.239
					c-29.065,0-55.379,11.781-74.426,30.828s-30.828,45.361-30.828,74.426v16.851v16.851c0,8.838,3.582,16.839,9.374,22.631
					c5.792,5.792,13.793,9.374,22.631,9.374h73.25h73.25c8.838,0,16.839-3.582,22.631-9.374c5.792-5.792,9.374-13.793,9.374-22.631
					v-16.851v-16.851c0-29.065-11.781-55.379-30.828-74.426C312.046,76.02,285.732,64.239,256.667,64.239z"/>
				<path id="XMLID_484_" style="fill:#42261C;" d="M237.412,235.203h-27h-27c-8.835,0-16.835-3.583-22.626-9.375
					c-5.791-5.792-9.374-13.795-9.374-22.635v-16.85v-16.85c0-29.065,11.78-55.378,30.826-74.424s45.359-30.826,74.424-30.826
					c4.665,0,9.26,0.303,13.766,0.891c4.506,0.589,8.924,1.464,13.234,2.609c-22.525,5.955-42.087,19.192-56.019,37.041
					c-13.931,17.849-22.231,40.309-22.231,64.709v16.85v16.85c0,8.84,3.583,16.842,9.374,22.635
					C220.577,231.62,228.577,235.203,237.412,235.203z"/>
				<path id="XMLID_482_" style="fill:#FDC3B5;" d="M343.702,209.211c0,0-0.006-19.222-8.753-36.856
					c-8.747-17.634-26.236-33.679-61.201-27.326v8.438v8.438c0,4.293-1.747,8.187-4.567,11.007c-2.82,2.82-6.713,4.567-11.007,4.567
					h-2.176h-2.176c-4.294,0-8.187-1.747-11.007-4.567c-2.82-2.82-4.567-6.713-4.567-11.007c0-1.381,0.56-2.631,1.465-3.535
					s2.155-1.465,3.535-1.465s2.631,0.56,3.535,1.465s1.465,2.155,1.465,3.535c0,1.537,0.625,2.93,1.634,3.939
					s2.403,1.634,3.939,1.634h2.176h2.176c1.537,0,2.93-0.625,3.939-1.634s1.634-2.402,1.634-3.939v-7.285v-7.285
					c-1.149,0.319-2.311,0.656-3.49,1.016c-1.179,0.36-2.375,0.742-3.591,1.151v0.109v0.109c-0.057-0.019-0.112-0.037-0.167-0.055
					s-0.111-0.035-0.167-0.054c-0.056,0.019-0.112,0.037-0.167,0.054c-0.055,0.018-0.111,0.035-0.167,0.055v-0.109v-0.109
					c-43.513-14.636-65.272,0.291-76.152,18.877c-10.88,18.586-10.883,40.831-10.883,40.831v15.063v15.063
					c0,22.252,8.854,36.941,20.935,48.896c12.081,11.955,27.39,21.176,40.3,32.49c7.686,6.736,17.077,10.104,26.468,10.104
					c9.391,0,18.782-3.368,26.468-10.104c12.91-11.315,28.219-20.535,40.3-32.49c12.081-11.955,20.935-26.644,20.935-48.896v-16.49
					v-16.49l-0.334,1.427L343.702,209.211z"/>
				<path id="XMLID_481_" style="fill:#F5BB96;" d="M266.194,320.723c-12.91-11.315-28.217-20.535-40.298-32.49
					c-12.08-11.955-20.932-26.645-20.932-48.9v-15.06v-15.06c0,0,0.002-12.893,4.805-27.249s14.405-30.176,33.605-36.031
					c-37.18-8.43-55.782,7.367-65.09,25.284c-9.308,17.916-9.32,37.951-9.32,37.994l0,0l0,0c-4.847,0-9.235,1.965-12.411,5.141
					c-3.176,3.176-5.141,7.564-5.141,12.411c0,4.847,1.965,9.235,5.141,12.411c3.176,3.176,7.564,5.141,12.411,5.141
					c0.029,0,0.057-0.002,0.085-0.004s0.057-0.004,0.085-0.005c1.273,20.314,10.331,33.978,22.175,45.283
					c11.844,11.306,26.475,20.253,38.895,31.134c6.365,5.575,13.897,8.842,21.631,9.8c7.734,0.957,15.669-0.395,22.839-4.06
					c-1.49-0.75-2.948-1.605-4.364-2.563C268.894,322.943,267.519,321.883,266.194,320.723z"/>
				<path id="XMLID_479_" style="fill:#FDC3B5;" d="M326.819,226.762c0,4.847,1.965,9.235,5.141,12.411
					c3.176,3.176,7.564,5.141,12.411,5.141c4.847,0,9.235-1.965,12.411-5.141c3.176-3.176,5.141-7.564,5.141-12.411
					s-1.965-9.235-5.141-12.411c-3.176-3.176-7.564-5.141-12.411-5.141c-4.847,0-9.235,1.965-12.411,5.141
					C328.783,217.528,326.819,221.915,326.819,226.762z"/>
				<path style="fill:#904946;" d="M192.556,206.156c-1.229,0-2.421-0.648-3.061-1.798c-0.94-1.688-0.334-3.82,1.354-4.761
					c0.246-0.137,6.115-3.371,14.485-5c11.265-2.192,21.759-0.423,30.345,5.116c1.625,1.049,2.091,3.215,1.043,4.839
					c-1.048,1.623-3.213,2.09-4.838,1.044c-7.139-4.606-15.622-5.995-25.213-4.128c-7.288,1.418-12.366,4.216-12.416,4.244
					C193.717,206.014,193.132,206.156,192.556,206.156z"/>
				<path id="XMLID_476_" style="fill:#904946;" d="M220.207,224.646c0,2.915-0.821,5.554-2.148,7.464
					c-1.327,1.91-3.16,3.092-5.185,3.092c-2.025,0-3.858-1.181-5.185-3.092c-1.327-1.91-2.148-4.549-2.148-7.464
					c0-2.915,0.821-5.554,2.148-7.464c1.327-1.91,3.16-3.092,5.185-3.092c2.025,0,3.858,1.181,5.185,3.092
					C219.386,219.092,220.207,221.731,220.207,224.646z"/>
				<path style="fill:#904946;" d="M319.021,206.155c-0.65,0-1.308-0.181-1.895-0.559c-7.138-4.605-15.622-5.995-25.213-4.128
					c-7.22,1.405-12.37,4.219-12.422,4.247c-1.688,0.933-3.819,0.322-4.755-1.364c-0.937-1.688-0.332-3.814,1.354-4.754
					c0.246-0.137,6.114-3.371,14.484-5c11.266-2.191,21.76-0.424,30.346,5.116c1.624,1.048,2.092,3.215,1.044,4.839
					C321.295,205.59,320.169,206.155,319.021,206.155z"/>
				<path id="XMLID_474_" style="fill:#904946;" d="M305.448,224.646c0,2.915-0.821,5.554-2.148,7.464
					c-1.327,1.91-3.16,3.092-5.185,3.092s-3.858-1.181-5.185-3.092c-1.327-1.91-2.148-4.549-2.148-7.464
					c0-2.915,0.821-5.554,2.148-7.464c1.327-1.91,3.16-3.092,5.185-3.092s3.858,1.181,5.185,3.092
					C304.627,219.092,305.448,221.731,305.448,224.646z"/>
				<path id="XMLID_473_" style="fill:#CC8B81;" d="M264.317,253.98h-8.318h-8.318c-1.224,0-2.332-0.496-3.134-1.298
					c-0.802-0.802-1.298-1.91-1.298-3.134v-0.402v-0.402c0-1.224,0.496-2.332,1.298-3.134c0.802-0.802,1.91-1.298,3.134-1.298h8.318
					h8.318c1.224,0,2.332,0.496,3.134,1.298s1.298,1.91,1.298,3.134v0.402v0.402c0,1.224-0.496,2.332-1.298,3.134
					S265.541,253.98,264.317,253.98z"/>
				<path style="fill:#824141;" d="M226.203,220.369c-0.588,0-1.185-0.149-1.733-0.462c-5.048-2.886-10.481-3.765-16.149-2.609
					c-4.158,0.846-6.898,2.521-6.926,2.538c-1.641,1.013-3.796,0.516-4.816-1.117c-1.021-1.634-0.537-3.781,1.092-4.81
					c0.151-0.096,3.772-2.355,9.255-3.471c7.278-1.479,14.545-0.307,21.017,3.391c1.679,0.959,2.262,3.098,1.303,4.775
					C228.6,219.735,227.418,220.369,226.203,220.369z"/>
				<path style="fill:#824141;" d="M311.444,220.369c-0.589,0-1.186-0.149-1.733-0.462c-5.048-2.886-10.479-3.765-16.149-2.609
					c-4.171,0.849-6.885,2.513-6.911,2.529c-1.633,1.029-3.796,0.546-4.828-1.09c-1.032-1.634-0.545-3.796,1.09-4.828
					c0.151-0.096,3.771-2.355,9.255-3.471c7.276-1.48,14.546-0.306,21.017,3.391c1.679,0.959,2.262,3.098,1.303,4.775
					C313.84,219.735,312.659,220.369,311.444,220.369z"/>
				<path id="XMLID_470_" style="fill:#FFFFFF;" d="M235.039,274.469c0,4.932,2.365,9.792,6.188,13.42
					c3.823,3.628,9.105,6.022,14.939,6.022h0h0c5.834,0,11.116-2.395,14.939-6.022c3.823-3.628,6.188-8.488,6.188-13.42h-21.127
					H235.039z"/>
				<path id="XMLID_469_" style="fill:#F92B43;" d="M277.296,274.469c0,2.92-0.59,5.815-1.659,8.517
					c-1.069,2.703-2.616,5.213-4.531,7.363c-1.91,2.145-4.188,3.925-6.716,5.169s-5.309,1.951-8.224,1.951
					c-5.835,0-11.117-2.833-14.941-7.124c-3.824-4.291-6.189-10.041-6.189-15.876h0.615h0.615c1.46,4.33,4.143,8.247,7.606,11.082
					c3.464,2.835,7.709,4.587,12.294,4.587c2.915,0,5.695-0.708,8.224-1.953s4.806-3.027,6.716-5.177
					c1.095-1.225,2.07-2.573,2.904-4.008c0.834-1.435,1.526-2.957,2.056-4.532h0.615H277.296z"/>
				<path id="XMLID_468_" style="fill:#F92B43;" d="M256.166,268.969c-5.646-0.917-10.928,0.458-14.798,2.062
					c-3.87,1.604-6.329,3.438-6.329,3.438h10.563h10.563h10.563h10.563c0,0-2.458-1.833-6.329-3.438
					C267.094,269.427,261.813,268.052,256.166,268.969z"/>
				<path id="XMLID_466_" style="fill:#F92B43;" d="M172.978,247.52c0.582-0.54,1.055-1.194,1.384-1.927s0.512-1.545,0.512-2.401
					c0-1.632-0.661-3.109-1.731-4.179c-1.069-1.069-2.547-1.731-4.179-1.731s-3.109,0.661-4.179,1.731
					c-1.069,1.069-1.731,2.547-1.731,4.179c0,0.856,0.183,1.668,0.512,2.401s0.802,1.387,1.384,1.927
					c-1.382,0.724-2.545,1.809-3.363,3.13c-0.818,1.321-1.29,2.878-1.29,4.547c0,2.393,0.97,4.56,2.538,6.128
					c1.568,1.568,3.735,2.538,6.128,2.538c2.393,0,4.56-0.97,6.128-2.538c1.568-1.568,2.538-3.735,2.538-6.128
					c0-1.668-0.472-3.226-1.29-4.547C175.523,249.329,174.36,248.244,172.978,247.52z"/>
				<path id="XMLID_464_" style="fill:#F92B43;" d="M348.384,247.52c0.582-0.54,1.055-1.194,1.384-1.927
					c0.328-0.733,0.512-1.545,0.512-2.401c0-1.632-0.661-3.109-1.731-4.179c-1.069-1.069-2.547-1.731-4.179-1.731
					s-3.109,0.661-4.179,1.731s-1.731,2.547-1.731,4.179c0,0.856,0.183,1.668,0.512,2.401c0.328,0.733,0.802,1.387,1.384,1.927
					c-1.382,0.724-2.545,1.809-3.363,3.13c-0.818,1.321-1.29,2.878-1.29,4.547c0,2.393,0.97,4.56,2.538,6.128
					c1.568,1.568,3.735,2.538,6.128,2.538c2.393,0,4.56-0.97,6.128-2.538c1.568-1.568,2.538-3.735,2.538-6.128
					c0-1.668-0.472-3.226-1.29-4.547C350.929,249.329,349.766,248.244,348.384,247.52z"/>
				<g id="XMLID_503_">
					<path id="XMLID_504_" style="fill:#BC3939;" d="M138.297,141.751c0,1.798-1.158,3.769-2.185,5.695
						c-1.027,1.927-1.922,3.81-1.395,5.432c0.546,1.681,2.395,2.706,4.362,3.66c1.967,0.954,4.053,1.838,5.071,3.237
						c1.029,1.414,1.235,3.674,1.537,5.839c0.302,2.165,0.7,4.233,2.114,5.262c1.4,1.019,3.48,0.758,5.63,0.379
						c2.15-0.379,4.371-0.876,6.053-0.33c1.622,0.527,3.093,2.233,4.608,3.808c1.515,1.575,3.074,3.018,4.872,3.018
						s3.357-1.443,4.872-3.018c1.515-1.575,2.986-3.281,4.608-3.808c1.681-0.546,3.902-0.049,6.053,0.33
						c2.151,0.379,4.231,0.64,5.63-0.379c1.414-1.029,1.812-3.097,2.114-5.262s0.508-4.426,1.537-5.839
						c1.019-1.4,3.104-2.283,5.071-3.237s3.816-1.979,4.362-3.66c0.527-1.622-0.368-3.505-1.395-5.432
						c-1.027-1.927-2.185-3.897-2.185-5.695s1.158-3.769,2.185-5.695c1.027-1.927,1.922-3.81,1.395-5.432
						c-0.546-1.681-2.395-2.706-4.362-3.66c-1.967-0.954-4.053-1.838-5.071-3.237c-1.029-1.414-1.235-3.674-1.537-5.839
						c-0.302-2.165-0.7-4.233-2.114-5.262c-1.4-1.019-3.48-0.758-5.63-0.379c-2.15,0.379-4.371,0.876-6.053,0.33
						c-1.622-0.527-3.093-2.233-4.608-3.808c-1.515-1.575-3.074-3.018-4.872-3.018s-3.357,1.443-4.872,3.018
						c-1.515,1.575-2.986,3.281-4.608,3.808c-1.681,0.546-3.902,0.049-6.053-0.33c-2.151-0.379-4.231-0.64-5.63,0.379
						c-1.414,1.029-1.812,3.097-2.114,5.262c-0.302,2.165-0.508,4.426-1.537,5.839c-1.019,1.4-3.104,2.283-5.071,3.237
						c-1.967,0.954-3.816,1.979-4.362,3.66c-0.527,1.622,0.368,3.505,1.395,5.432C137.139,137.982,138.297,139.953,138.297,141.751z
						"/>
					<path id="XMLID_505_" style="fill:#A33434;" d="M175.206,170.928c0.28,0.09,0.553,0.215,0.821,0.367
						c0.269,0.152,0.534,0.332,0.799,0.532c-1.28,0.975-2.5,2.455-3.773,3.691c-1.273,1.236-2.598,2.229-4.088,2.229
						c-1.8,0-3.36-1.442-4.875-3.016c-1.515-1.574-2.985-3.279-4.605-3.804c-1.685-0.545-3.908-0.048-6.059,0.331
						c-2.151,0.379-4.231,0.639-5.631-0.381c-1.41-1.03-1.808-3.097-2.11-5.261c-0.303-2.164-0.51-4.424-1.54-5.839
						c-1.015-1.4-3.1-2.285-5.067-3.24s-3.818-1.98-4.363-3.66c-0.525-1.62,0.37-3.502,1.396-5.43c1.026-1.927,2.184-3.9,2.184-5.7
						c0-1.795-1.158-3.765-2.184-5.691c-1.026-1.926-1.921-3.809-1.396-5.429c0.545-1.685,2.395-2.71,4.363-3.664
						s4.052-1.836,5.067-3.236c1.03-1.415,1.238-3.675,1.54-5.839s0.7-4.231,2.11-5.261c1.4-1.02,3.48-0.76,5.631-0.381
						c2.151,0.379,4.374,0.876,6.059,0.331c1.62-0.525,3.09-2.232,4.605-3.809s3.075-3.021,4.875-3.021
						c1.49,0,2.815,0.995,4.088,2.234c1.272,1.239,2.492,2.721,3.773,3.696c-0.265,0.205-0.53,0.385-0.799,0.536
						c-0.269,0.151-0.541,0.274-0.821,0.364c-1.68,0.545-3.9,0.048-6.05-0.331s-4.23-0.639-5.63,0.381
						c-1.415,1.03-1.812,3.098-2.114,5.261c-0.301,2.164-0.506,4.424-1.536,5.839c-1.02,1.4-3.105,2.282-5.071,3.236
						s-3.814,1.979-4.359,3.664c-0.53,1.62,0.365,3.503,1.392,5.429c1.027,1.926,2.187,3.896,2.187,5.691
						c0,1.8-1.16,3.773-2.187,5.7c-1.027,1.928-1.922,3.81-1.392,5.43c0.545,1.68,2.392,2.705,4.359,3.66s4.051,1.84,5.071,3.24
						c1.03,1.415,1.235,3.675,1.536,5.839c0.301,2.164,0.699,4.231,2.114,5.261c1.4,1.02,3.48,0.76,5.63,0.381
						S173.526,170.383,175.206,170.928z"/>
					<path id="XMLID_506_" style="fill:#002C5D;" d="M158.297,141.751c0,2.946,1.194,5.612,3.124,7.542
						c1.93,1.93,4.597,3.124,7.542,3.124c2.946,0,5.612-1.194,7.542-3.124c1.93-1.93,3.124-4.597,3.124-7.542
						c0-2.946-1.194-5.612-3.124-7.542c-1.93-1.93-4.597-3.124-7.542-3.124c-2.946,0-5.612,1.194-7.542,3.124
						C159.491,136.139,158.297,138.805,158.297,141.751z"/>
				</g>
				<path id="XMLID_804_" style="fill:#F92B43;" d="M385.15,477.07c-3.47,2.035-6.993,3.99-10.564,5.862
					c-3.571,1.871-7.191,3.659-10.856,5.359c-16.375,7.61-33.688,13.537-51.716,17.562S275.24,512,256,512
					c-18.175,0-35.907-1.895-53.011-5.498s-33.579-8.913-49.239-15.743c-4.535-1.98-9.003-4.085-13.398-6.315
					s-8.717-4.585-12.962-7.065l1.695-11.71l1.695-11.71c0.075-0.505,0.15-1.007,0.227-1.51s0.158-1.005,0.242-1.51
					c0-0.005,0.003-0.012,0.005-0.02s0.005-0.015,0.005-0.02c0.005-0.02,0.008-0.037,0.01-0.055s0.005-0.035,0.01-0.055
					c0.005-0.03,0.01-0.062,0.015-0.095s0.01-0.065,0.015-0.095c0.08-0.46,0.162-0.917,0.247-1.374s0.173-0.911,0.263-1.366
					c0.2-1.005,0.412-2.007,0.636-3.005s0.459-1.99,0.704-2.975c0,0,0,0,0-0.001s0-0.004,0-0.009c0.105-0.4,0.208-0.795,0.311-1.189
					s0.209-0.786,0.319-1.181c0.245-0.915,0.503-1.825,0.771-2.73s0.549-1.805,0.839-2.7c0.105-0.325,0.21-0.645,0.316-0.964
					s0.214-0.636,0.324-0.956c0,0,0,0,0.001-0.001s0.004-0.004,0.009-0.009c0.04-0.02,0.19-0.1,0.446-0.234s0.619-0.321,1.084-0.556
					c0.1-0.05,0.207-0.103,0.321-0.159s0.234-0.116,0.359-0.182c0.015-0.005,0.028-0.01,0.04-0.016s0.025-0.014,0.04-0.024
					c0.075-0.035,0.15-0.07,0.227-0.107s0.158-0.077,0.243-0.122c2.095-1.025,5.305-2.525,9.372-4.21s8.992-3.555,14.517-5.32
					c0.275-0.085,0.548-0.17,0.821-0.255s0.549-0.17,0.829-0.255c0.44-0.14,0.885-0.278,1.335-0.413s0.905-0.267,1.365-0.397
					c0.23-0.07,0.457-0.138,0.685-0.203s0.455-0.128,0.685-0.188c0.205-0.06,0.413-0.12,0.621-0.179s0.419-0.116,0.629-0.171
					c12.005-3.28,26.008-5.65,39.906-4.744s27.694,5.089,39.284,14.914c2.16,1.83,4.817,2.745,7.475,2.745
					c2.658,0,5.315-0.915,7.475-2.745c0.065-0.055,0.127-0.107,0.19-0.159s0.125-0.101,0.19-0.151
					c20.995-17.515,49.103-16.73,71.961-11.566s40.469,14.706,40.469,14.706l0.11-0.025l0.11-0.025
					c0.155,0.45,0.307,0.902,0.457,1.356c0.15,0.454,0.297,0.909,0.442,1.364c0.04,0.125,0.08,0.253,0.119,0.38
					c0.039,0.128,0.076,0.255,0.111,0.38c0.09,0.275,0.178,0.55,0.263,0.826c0.085,0.276,0.167,0.554,0.247,0.834
					c0.065,0.22,0.13,0.44,0.194,0.66s0.126,0.44,0.186,0.66c0.085,0.285,0.165,0.57,0.243,0.855
					c0.077,0.285,0.152,0.57,0.228,0.855c0.04,0.135,0.077,0.272,0.114,0.411s0.071,0.279,0.106,0.419
					c0.09,0.33,0.177,0.662,0.261,0.996c0.084,0.334,0.164,0.669,0.239,1.004c0.135,0.545,0.263,1.09,0.385,1.635
					s0.24,1.09,0.355,1.635c0.065,0.295,0.127,0.587,0.187,0.879c0.06,0.291,0.118,0.581,0.173,0.871
					c0.025,0.14,0.052,0.277,0.08,0.414c0.028,0.136,0.055,0.271,0.08,0.406c0.065,0.355,0.13,0.71,0.194,1.065
					s0.126,0.71,0.186,1.065c0.075,0.415,0.148,0.833,0.216,1.251c0.069,0.419,0.134,0.839,0.194,1.259
					c0.065,0.42,0.128,0.84,0.188,1.261s0.117,0.844,0.172,1.269l1.345,10.48L385.15,477.07z"/>
				<path id="XMLID_790_" style="fill:#533022;" d="M385.15,477.07c-3.47,2.035-6.993,3.99-10.564,5.862
					c-3.571,1.871-7.191,3.659-10.856,5.359c-16.375,7.61-33.688,13.537-51.716,17.562S275.24,512,256,512
					c-18.175,0-35.907-1.895-53.011-5.498s-33.579-8.913-49.239-15.743c-4.535-1.98-9.003-4.085-13.398-6.315
					s-8.717-4.585-12.962-7.065l1.695-11.71l1.695-11.71c0.075-0.505,0.15-1.007,0.227-1.51s0.158-1.005,0.242-1.51
					c1.145-0.59,3.58-1.813,7.033-3.359s7.922-3.416,13.137-5.301c0.165-0.065,0.333-0.127,0.503-0.189s0.342-0.121,0.517-0.181
					c1.535-0.55,3.13-1.098,4.779-1.636s3.351-1.069,5.101-1.584c12.705-3.74,27.92-6.693,43.127-6.024s30.408,4.959,43.083,15.704
					c2.26,1.915,5.04,2.873,7.82,2.873c2.78,0,5.56-0.958,7.82-2.873c1.965-1.665,3.988-3.175,6.061-4.54s4.199-2.585,6.369-3.67
					c20.91-10.49,45.715-8.528,66.026-3.56c20.311,4.967,36.129,12.94,39.064,14.47c0.075,0.415,0.148,0.833,0.216,1.251
					c0.069,0.419,0.134,0.839,0.194,1.259c0.065,0.42,0.128,0.84,0.188,1.261s0.117,0.844,0.172,1.269l1.345,10.48L385.15,477.07z"
					/>
				<path id="XMLID_848_" style="fill:#BC3939;" d="M168.42,419.5c0.205-0.06,0.413-0.12,0.621-0.179s0.419-0.116,0.629-0.171
					c-0.58,1.2-1.14,2.412-1.679,3.636s-1.056,2.459-1.551,3.704c-0.37,0.935-0.73,1.875-1.08,2.818s-0.69,1.891-1.02,2.841
					c-0.11,0.32-0.218,0.638-0.324,0.956s-0.211,0.639-0.316,0.964c-0.245,0.76-0.485,1.525-0.716,2.295s-0.454,1.545-0.664,2.325
					c-0.04,0.135-0.08,0.27-0.119,0.405s-0.076,0.27-0.111,0.405c-0.11,0.395-0.215,0.787-0.319,1.181s-0.206,0.789-0.311,1.189
					c0,0.005,0,0.007,0,0.009s0,0.001,0,0.001c-0.245,0.985-0.48,1.978-0.704,2.975s-0.436,2-0.636,3.005
					c-0.2,1.005-0.385,2.018-0.557,3.035s-0.332,2.04-0.482,3.065l-2.665,18.4l-2.665,18.4c-4.535-1.98-9.003-4.085-13.398-6.315
					s-8.717-4.585-12.962-7.065l1.695-11.71l1.695-11.71c0.075-0.505,0.15-1.007,0.227-1.51s0.158-1.005,0.242-1.51
					c0-0.005,0.003-0.012,0.005-0.02s0.005-0.015,0.005-0.02c0.005-0.02,0.008-0.037,0.01-0.055s0.005-0.035,0.01-0.055
					c0.005-0.03,0.01-0.062,0.015-0.095s0.01-0.065,0.015-0.095c0.08-0.46,0.162-0.917,0.247-1.374s0.173-0.911,0.263-1.366
					c0.2-1.005,0.412-2.007,0.636-3.005s0.459-1.99,0.704-2.975c0,0,0,0,0-0.001s0-0.004,0-0.009c0.105-0.4,0.208-0.795,0.311-1.189
					s0.209-0.786,0.319-1.181c0.245-0.915,0.503-1.825,0.771-2.73s0.549-1.805,0.839-2.7c0.105-0.325,0.21-0.645,0.316-0.964
					s0.214-0.636,0.324-0.956c0,0,0,0,0.001-0.001s0.004-0.004,0.009-0.009c0.04-0.02,0.19-0.1,0.446-0.234s0.619-0.321,1.084-0.556
					c0.1-0.05,0.207-0.103,0.321-0.159s0.234-0.116,0.359-0.182c0.015-0.005,0.028-0.01,0.04-0.016s0.025-0.014,0.04-0.024
					c0.075-0.035,0.15-0.07,0.227-0.107s0.158-0.077,0.243-0.122c2.095-1.025,5.305-2.525,9.372-4.21s8.992-3.555,14.517-5.32
					c0.275-0.085,0.548-0.17,0.821-0.255s0.549-0.17,0.829-0.255c0.44-0.14,0.885-0.278,1.335-0.413s0.905-0.267,1.365-0.397
					c0.23-0.07,0.457-0.138,0.685-0.203S168.19,419.56,168.42,419.5z"/>
				<path id="XMLID_811_" style="fill:#42261C;" d="M152.44,441.91c1.535-0.55,3.13-1.098,4.779-1.636s3.351-1.069,5.101-1.584
					c-0.04,0.135-0.08,0.27-0.119,0.405s-0.076,0.27-0.111,0.405c-0.11,0.395-0.215,0.787-0.319,1.181s-0.206,0.789-0.311,1.189
					c0,0.005,0,0.007,0,0.009s0,0.001,0,0.001c-0.245,0.985-0.48,1.978-0.704,2.975s-0.436,2-0.636,3.005
					c-0.2,1.005-0.385,2.018-0.557,3.035s-0.332,2.04-0.482,3.065l-2.665,18.4l-2.665,18.4c-4.535-1.98-9.003-4.085-13.398-6.315
					s-8.717-4.585-12.962-7.065l1.695-11.71l1.695-11.71c0.075-0.505,0.15-1.007,0.227-1.51s0.158-1.005,0.242-1.51
					c1.145-0.59,3.58-1.813,7.033-3.359s7.922-3.416,13.137-5.301c0.165-0.065,0.333-0.127,0.503-0.189
					S152.265,441.97,152.44,441.91z"/>
			</g>
		</g>
		<path id="XMLID_1668_" style="fill:#D57249;" d="M166.432,218.778c-2.271,0-4.326,0.92-5.815,2.408
			c-1.488,1.488-2.408,3.544-2.408,5.815s0.92,4.326,2.408,5.814c1.488,1.488,3.544,2.408,5.815,2.408v-8.223V218.778z"/>
		<path id="XMLID_825_" style="fill:#D57249;" d="M344.618,235.224c2.271,0,4.326-0.92,5.815-2.408
			c1.488-1.488,2.408-3.544,2.408-5.814s-0.92-4.326-2.408-5.815c-1.488-1.488-3.544-2.408-5.815-2.408v8.223V235.224z"/>
	</g>
</g>
</svg>
